<?xml version="1.0" encoding="utf-8"?>
<!-- Generator: Adobe Illustrator 28.1.0, SVG Export Plug-In . SVG Version: 6.00 Build 0)  -->
<svg version="1.1" id="Layer_1" xmlns="http://www.w3.org/2000/svg" xmlns:xlink="http://www.w3.org/1999/xlink" x="0px" y="0px"
	 viewBox="0 0 498 302" style="enable-background:new 0 0 498 302;" xml:space="preserve">
<style type="text/css">
	.st0{fill:#0076B4;}
	.st1{fill:#1C3762;}
</style>
<path class="st0" d="M400.8,0.9l21.1,21.1c0.5,0.5,0.5,1.4,0,1.9L400.8,45c-0.5,0.5-1.4,0.5-1.9,0l-21.1-21.1
	c-0.5-0.5-0.5-1.4,0-1.9l21.1-21.1C399.4,0.4,400.3,0.4,400.8,0.9z"/>
<path class="st1" d="M149.7,257.6l35.5-35.5c0.1-0.1,0.1-0.1,0.1-0.2v-182c0-0.1,0-0.2,0.1-0.2L216,5.5c0.1-0.1,0.3-0.1,0.5,0
	c0.1,0.1,0.1,0.2,0.1,0.2l0,229c0,0.1,0,0.2-0.1,0.2l-66.7,66.7c-0.1,0.1-0.3,0.1-0.5,0l-73.1-73.1c-0.1-0.1-0.1-0.3,0-0.5
	l21.6-21.6c0.1-0.1,0.3-0.1,0.5,0l51,51.1C149.4,257.8,149.6,257.8,149.7,257.6z"/>
<path class="st1" d="M495,158.8c0.3,0.2,1,1,2.1,2.3c0.2,0.2,0.2,0.5,0,0.7l-74.3,74.4c-0.3,0.3-0.6,0.4-1,0.4h-173
	c-0.1,0-0.2-0.1-0.2-0.1v0l0-231c0-0.4,0.1-0.4,0.4-0.1l29.2,33.9c0.2,0.3,0.4,0.6,0.4,1v166.2c0,0.1,0.1,0.3,0.3,0.3
	c22,0,44,0,65.8,0c1.1,0,1.4-0.5,1-1.4c0-0.1-0.1-0.2-0.1-0.2l-43.2-43.3c-0.2-0.2-0.2-0.6,0-0.8c0,0,0,0,0,0l96.9-96.9
	c0.2-0.2,0.5-0.2,0.7,0c30.9,30.8,61.7,61.6,92.5,92.4C493.3,157.3,494.1,158.1,495,158.8z M454.4,162.2c0.4-0.4,0.5-1.2,0-1.6
	c0,0,0,0,0,0l-53.8-53.8c-0.4-0.4-1.2-0.5-1.6,0c0,0,0,0,0,0l-53.8,53.8c-0.5,0.4-0.5,1.2,0,1.6c0,0,0,0,0,0l44.1,44.2
	c0.2,0.2,0.5,0.3,0.8,0.3l19.3,0c0.3,0,0.6-0.1,0.8-0.3L454.4,162.2z"/>
<path class="st0" d="M54.8,156.9c-0.2,1.2-0.4,2.3-1,3.4c-0.9,1.5-1.4,3.1-1.7,4.9c0,0.3-0.2,0.6-0.4,0.8c-0.3,0.2-0.5,0.5-0.6,0.9
	l-3.7,9.9c-0.4,1-1.1,1.5-2.2,1.5l-6.8-0.1c-0.6,0-0.8-0.3-0.6-0.9c8.5-21.8,17.2-44,26.2-66.7c1.4-3.5,2.7-7.1,4-10.7
	c0.1-0.4,0.3-0.4,0.5,0c1.6,3.7,3.1,7.6,4.7,11.6c1.9,4.8,3.7,9.3,5.4,13.6c0.4,0.9,0.2,2,1.1,2.6c0.3,0.2,0.5,0.5,0.6,0.9
	c0.3,1.2,0.8,2.9,1.6,5c5.6,14.2,11.3,28.6,17,43.2c0.6,1.4,0.1,2-1.3,1.6c-0.1,0-0.2,0-0.3,0c-1.2,0.1-2.3-0.7-2.8-2
	c-2.5-6.4-5.1-12.9-7.6-19.5c-0.2-0.4-0.6-0.7-1-0.7l-29.8,0C55.2,156.1,54.9,156.4,54.8,156.9z M72.3,120.6
	c-0.1-0.4-0.5-0.6-0.9-0.6l-1.3,0.1c-0.4,0-0.7,0.2-0.8,0.6l-11.3,29.4c-0.2,0.5,0.1,1,0.5,1.2c0.1,0,0.2,0.1,0.3,0.1l24.2,0.1
	c0.5,0,0.9-0.4,0.9-0.9c0-0.1,0-0.2-0.1-0.3L72.3,120.6z"/>
<path class="st0" d="M16.5,108.4l0,29.1c0,0.2,0.1,0.3,0.3,0.3l20,0c0.2,0,0.3,0.1,0.3,0.3c0,0.1,0,0.1-0.1,0.2l-2.8,3.8
	c-0.1,0.1-0.2,0.1-0.2,0.1l-17.2,0c-0.2,0-0.3,0.1-0.3,0.3v0l0,35.4c0,0.2-0.1,0.3-0.3,0.3L1,178.3c-0.2,0-0.3-0.1-0.3-0.3l0-74.3
	c0-0.2,0.1-0.3,0.3-0.3c0,0,0,0,0,0l48,0c0.2,0,0.3,0.1,0.3,0.3c0,0.1,0,0.1-0.1,0.2l-3.4,4.1c-0.1,0.1-0.1,0.1-0.2,0.1H16.8
	C16.6,108.1,16.5,108.2,16.5,108.4C16.5,108.4,16.5,108.4,16.5,108.4z"/>
<path class="st0" d="M155.6,178.3H111c-0.3,0-0.6-0.3-0.6-0.6l0,0l0-73.9c0-0.3,0.3-0.6,0.6-0.6l14.6,0c0.3,0,0.6,0.3,0.6,0.6v69.4
	c0,0.3,0.3,0.6,0.6,0.6l28,0c0.3,0,0.5,0.2,0.6,0.4l0.9,3.3c0.1,0.3-0.1,0.6-0.4,0.7C155.7,178.3,155.7,178.3,155.6,178.3z"/>
</svg>
