<svg width="72" height="71" viewBox="0 0 72 71" fill="none" xmlns="http://www.w3.org/2000/svg">
<path d="M56.7083 26.625C56.7083 30.9146 55.4362 34.8492 53.2471 38.133C50.0521 42.8663 44.9933 46.2092 39.1062 47.0671C38.1004 47.2446 37.065 47.3333 36 47.3333C34.935 47.3333 33.8996 47.2446 32.8937 47.0671C27.0067 46.2092 21.9479 42.8663 18.7529 38.133C16.5637 34.8492 15.2917 30.9146 15.2917 26.625C15.2917 15.1762 24.5512 5.91666 36 5.91666C47.4487 5.91666 56.7083 15.1762 56.7083 26.625Z" stroke="#AA9554" stroke-width="3" stroke-linecap="round" stroke-linejoin="round"/>
<path d="M63.3646 54.6404L58.4833 55.7941C57.3888 56.0604 56.5308 56.8888 56.2942 57.9833L55.2588 62.3321C54.6967 64.6988 51.6792 65.4088 50.1113 63.545L36 47.3333L21.8888 63.5745C20.3208 65.4383 17.3033 64.7283 16.7413 62.3616L15.7058 58.0129C15.4396 56.9183 14.5817 56.0604 13.5167 55.8237L8.63543 54.67C6.38709 54.1375 5.58834 51.327 7.21543 49.7L18.7529 38.1625C21.9479 42.8958 27.0067 46.2388 32.8938 47.0967C33.8996 47.2742 34.935 47.3629 36 47.3629C37.065 47.3629 38.1004 47.2742 39.1063 47.0967C44.9933 46.2388 50.0521 42.8958 53.2471 38.1625L64.7846 49.7C66.4117 51.2975 65.6129 54.1079 63.3646 54.6404Z" stroke="#AA9554" stroke-width="3" stroke-linecap="round" stroke-linejoin="round"/>
<path d="M37.7158 17.6908L39.4613 21.1817C39.6979 21.655 40.3192 22.1283 40.8813 22.2171L44.0467 22.7496C46.0583 23.075 46.5317 24.5542 45.0821 26.0038L42.6267 28.4591C42.2125 28.8733 41.9758 29.6721 42.1238 30.2638L42.8338 33.3108C43.3958 35.7071 42.1238 36.6537 39.9938 35.3816L37.0354 33.6362C36.5029 33.3108 35.6154 33.3108 35.0829 33.6362L32.1246 35.3816C29.9946 36.6241 28.7225 35.7071 29.2846 33.3108L29.9946 30.2638C30.1129 29.7017 29.9058 28.8733 29.4917 28.4591L27.0363 26.0038C25.5867 24.5542 26.06 23.1046 28.0717 22.7496L31.2371 22.2171C31.7696 22.1283 32.3908 21.655 32.6275 21.1817L34.3729 17.6908C35.2308 15.7975 36.7692 15.7975 37.7158 17.6908Z" stroke="#AA9554" stroke-width="3" stroke-linecap="round" stroke-linejoin="round"/>
</svg>
