<?xml version="1.0" encoding="utf-8"?>
<!-- Generator: Adobe Illustrator 28.1.0, SVG Export Plug-In . SVG Version: 6.00 Build 0)  -->
<svg version="1.1" id="Layer_1" xmlns="http://www.w3.org/2000/svg" xmlns:xlink="http://www.w3.org/1999/xlink" x="0px" y="0px"
	 viewBox="0 0 1000 1000" style="enable-background:new 0 0 1000 1000;" xml:space="preserve">
<style type="text/css">
	.st0{fill:#94A1A9;}
	.st1{fill:#CAD632;}
	.st2{fill:#2983C6;}
	.st3{fill:#1EB5BC;}
	.st4{fill:#1C396B;}
	.st5{fill:#6EB746;}
</style>
<g>
	<path class="st0" d="M306.7,397.5h-6.3v-55.6h6.3V397.5z M358,382.4v0.2c0,9.5-7.9,15.7-19,15.7c-8.8,0-16-2.9-22.7-8.9l3.9-4.6
		c5.8,5.2,11.4,7.9,19.1,7.9c7.5,0,12.4-4,12.4-9.4V383c0-5.2-2.8-8.1-14.4-10.6c-12.8-2.8-18.7-6.9-18.7-16v-0.2
		c0-8.7,7.7-15.2,18.3-15.2c8.1,0,13.9,2.3,19.5,6.8l-3.7,4.8c-5.2-4.2-10.3-6-16-6c-7.2,0-11.8,4-11.8,9v0.2
		c0,5.2,2.9,8.2,15.1,10.8C352.3,369.4,358,373.9,358,382.4 M413.9,340.9c-16.9,0-28.4,13.4-28.4,28.7v0.2
		c0,15.3,11.4,28.6,28.3,28.6s28.4-13.4,28.4-28.7v-0.2C442.1,354.2,430.8,340.9,413.9,340.9 M435.6,369.8c0,12.6-9,22.8-21.7,22.8
		c-12.7,0-21.9-10.3-21.9-22.9v-0.2c0-12.6,9.1-22.8,21.8-22.8c12.7,0,21.9,10.3,21.9,22.9V369.8z M368.4,341.9h6.3v55.6h-6.3V341.9
		z M262.5,397.9l-23.9-56h7l3.4,8.3l16.4,39.6l1.6,3.8l-0.6-6.1l18.9-45.6h6.7l-23.9,56H262.5z M493.3,341.9h6.1v55.6h-5l-39.4-50
		l3.5,8.1v41.9h-6.1v-55.6h5.9l37.6,47.8l-2.6-6.8V341.9z"/>
	<path class="st0" d="M669,403.3h5.9v5.9H669V403.3z M680.7,403.3h5.9v5.9h-5.9V403.3z M559.6,336.1h-5.9v-5.9h5.9V336.1z
		 M703.5,377.2c2.2,1.6,4.8,2.8,7.8,3.5c2.9,0.8,6.1,1.1,9.3,1.1h1.6l2-4.2v5.8c0,3.1-0.9,5.3-2.6,6.6c-1.8,1.3-4.2,2-7.4,2
		c-1.8,0-3.4-0.2-4.9-0.5c-1.4-0.3-3.1-0.9-5-1.8l-1.8,5.7c2.3,0.8,4.2,1.5,6,1.9c1.7,0.4,3.5,0.6,5.3,0.6c5.7,0,9.9-1.4,12.5-4.1
		c2.6-2.7,3.9-6.4,3.9-11v-41h-9.4c-3.6,0-6.9,0.5-9.9,1.5c-3,1-5.6,2.4-7.7,4.2c-2.1,1.8-3.8,3.9-5,6.4c-1.2,2.5-1.8,5.2-1.8,8.1
		c0,3.5,0.6,6.5,1.9,8.9C699.5,373.6,701.2,375.6,703.5,377.2 M703.5,356.4c0.9-1.8,2.1-3.3,3.6-4.5c1.5-1.3,3.2-2.2,5.1-2.9
		c1.9-0.7,3.8-1,5.8-1v0h9.5l-3.4,1.7V376h-6c-2.2,0-4.3-0.3-6.2-0.9c-1.9-0.6-3.6-1.5-5.1-2.7c-1.5-1.2-2.6-2.6-3.5-4.3
		c-0.8-1.7-1.3-3.7-1.3-5.9C702.1,360.1,702.6,358.1,703.5,356.4 M571.4,336.1h-5.9v-5.9h5.9V336.1z M744.9,398.1
		c-1.6,0-3.2-0.2-4.8-0.7l1.5-5.7c0.7,0.2,1.2,0.3,1.6,0.4c0.4,0,0.9,0.1,1.4,0.1c1.1,0,2-0.2,2.8-0.5c0.7-0.3,1.3-0.8,1.7-1.5
		c0.4-0.7,0.7-1.6,0.9-2.8c0.2-1.2,0.3-2.6,0.3-4.2v-41.2h5.9v41.2c0,2.3-0.2,4.4-0.6,6.2c-0.4,1.8-1,3.4-1.9,4.7
		c-0.9,1.3-2,2.3-3.5,3C748.8,397.7,747,398.1,744.9,398.1 M730,336.1h-12.9v-4.8c0-2.6,0.6-4.5,1.8-5.7c1.2-1.2,2.9-1.8,5.2-1.8
		h4.2v4.1h-4c-0.9,0-1.5,0.2-1.8,0.5c-0.3,0.4-0.5,1-0.5,1.7v1.4h8.1V336.1z M555.3,397.2h12.2v-4.4c0.1,0.2,0.2,0.4,0.4,0.6
		c0.9,1.3,2,2.3,3.5,3c1.4,0.7,3.2,1,5.3,1h109.9v-55.5h-5.9v49.6h-6.1h-97.7c-1.1,0-2-0.2-2.8-0.5c-0.7-0.3-1.3-0.8-1.7-1.5
		c-0.4-0.7-0.7-1.6-0.9-2.8c-0.2-1.2-0.3-2.6-0.3-4.2v-40.6h-15.9c-16.3,0-27.3,12.9-27.3,27.6v0.2
		C528.1,384.5,539,397.2,555.3,397.2 M534.4,369.4c0-12.1,8.7-21.9,20.9-21.9h13.8l-3.6,1.8v33.2c0,2.3,0.2,4.4,0.5,6.2
		c0.2,1.1,0.5,2,0.9,2.9l-11.5,0c-12.2,0-21.1-9.9-21.1-22.1V369.4z"/>
	<polygon class="st0" points="260.3,675.8 256,675.8 247.6,664.7 243.5,668.9 243.5,675.8 239.9,675.8 239.9,652.2 243.5,652.2 
		243.5,664.9 255.5,652.2 259.8,652.2 250.1,662.3 	"/>
	<rect x="265.2" y="652.2" class="st0" width="3.6" height="23.5"/>
	<polygon class="st0" points="296.4,652.2 296.4,675.8 293.3,675.8 279.5,657.9 279.5,675.8 276,675.8 276,652.2 279.4,652.2 
		292.9,669.6 292.9,652.2 	"/>
	<path class="st0" d="M324.3,662.9v9.7c-2,1.7-5.3,3.6-9.8,3.6c-7.2,0-12.2-5-12.2-12.1V664c0-6.8,5.3-12.2,12.2-12.2
		c3.7,0,6.2,0.9,8.8,3l-2.3,2.7c-1.8-1.5-3.7-2.5-6.7-2.5c-4.5,0-8.2,4-8.2,8.9c0,5.3,3.5,9,8.5,9c2.2,0,4.4-0.7,6-1.9l0.1-0.1v-5
		h-6.2v-3.1H324.3z"/>
	<path class="st0" d="M339.5,652.2h-8.7v23.5h8.7c7.3,0,12.5-4.9,12.5-11.8C352.1,657.1,346.8,652.2,339.5,652.2 M339.5,672.5h-5.1
		v-17.1h5.1c5.1,0,8.7,3.5,8.7,8.5C348.3,669,344.7,672.5,339.5,672.5"/>
	<path class="st0" d="M369.1,651.8c-7.1,0-12.4,5.2-12.4,12.2v0.1c0,6.9,5.3,12.1,12.3,12.1c7,0,12.4-5.2,12.4-12.2
		C381.4,657,376.1,651.8,369.1,651.8 M377.6,664.1c0,5.1-3.7,8.9-8.5,8.9c-4.8,0-8.6-3.9-8.6-8.9c0-5.1,3.7-8.9,8.5-8.9
		C373.8,655.1,377.6,659,377.6,664.1L377.6,664.1z"/>
	<polygon class="st0" points="410.4,652.2 410.4,675.8 406.8,675.8 406.8,657.7 398.8,669.7 390.8,657.7 390.8,675.8 387.3,675.8 
		387.3,652.2 391.3,652.2 398.9,663.9 406.4,652.2 	"/>
	<path class="st0" d="M440.6,651.8c-7,0-12.4,5.2-12.4,12.2v0.1c0,6.9,5.3,12.1,12.3,12.1c7.1,0,12.4-5.2,12.4-12.2
		C452.9,657,447.6,651.8,440.6,651.8 M449.1,664.1c0,5.1-3.7,8.9-8.5,8.9c-4.8,0-8.5-3.9-8.5-8.9c0-5.1,3.6-8.9,8.5-8.9
		C445.3,655.1,449.1,659,449.1,664.1L449.1,664.1z"/>
	<polygon class="st0" points="462.4,655.4 462.4,662.7 474.7,662.7 474.7,665.9 462.4,665.9 462.4,675.8 458.8,675.8 458.8,652.2 
		476.2,652.2 476.2,655.4 	"/>
	<path class="st0" d="M510.7,669.2c0,4.2-3.3,6.9-8.3,6.9c-3.6,0-6.9-1.2-9.6-3.6l2.1-2.5c2.5,2.1,4.8,3,7.6,3
		c2.8,0,4.6-1.3,4.6-3.4c0-2.1-1.3-3-5.7-4c-5.1-1.2-7.8-2.7-7.8-7c0-3.9,3.3-6.7,7.9-6.7c3.2,0,5.9,0.9,8.3,2.8l-1.9,2.7
		c-2.2-1.6-4.3-2.4-6.5-2.4c-2.5,0-4.3,1.3-4.3,3.3c0,2.1,1.3,3,6,4.1C508.6,663.7,510.7,665.6,510.7,669.2"/>
	<path class="st0" d="M527.7,652h-3.5l-10.4,23.7h3.7l2.5-5.8h11.9l2.5,5.8h3.8L527.7,652z M521.3,666.8l4.6-10.8l4.7,10.8H521.3z"
		/>
	<path class="st0" d="M561.5,652.2v13.4c0,6.7-3.7,10.5-10.1,10.5c-6.4,0-10-3.8-10-10.3v-13.6h3.6v13.4c0,4.6,2.4,7.2,6.4,7.2
		c4.1,0,6.4-2.6,6.4-7.1v-13.6H561.5z"/>
	<path class="st0" d="M577.1,652.2h-8.7v23.5h8.7c7.3,0,12.5-4.9,12.5-11.8C589.6,657.1,584.3,652.2,577.1,652.2 M577.1,672.5H572
		v-17.1h5.1c5.1,0,8.7,3.5,8.7,8.5C585.8,669,582.2,672.5,577.1,672.5"/>
	<rect x="595.6" y="652.2" class="st0" width="3.6" height="23.5"/>
	<path class="st0" d="M631,652h-3.5l-10.4,23.7h3.7l2.5-5.8h11.9l2.4,5.8h3.8L631,652z M624.5,666.8l4.6-10.8l4.7,10.8H624.5z"/>
	<path class="st0" d="M659.3,666.7l0.4-0.1c3.6-1,5.5-3.5,5.5-7c0-2-0.7-3.8-1.9-5.1c-1.5-1.5-3.9-2.3-6.8-2.3h-10.5v23.5h3.6v-8.4
		h5.7l0.2,0.1l5.9,8.3h4.2L659.3,666.7z M649.8,664.2v-8.8h6.5c3.4,0,5.3,1.6,5.3,4.3c0,2.7-2.1,4.4-5.3,4.4H649.8z"/>
	<path class="st0" d="M683.9,652h-3.5L670,675.8h3.6l2.5-5.8H688l2.5,5.8h3.8L683.9,652z M677.4,666.8l4.6-10.8l4.7,10.8H677.4z"/>
	<path class="st0" d="M714,663.8l-0.7-0.2l0.7-0.3c2.2-1.1,3.3-2.8,3.3-5.1c0-1.6-0.5-2.8-1.5-3.9c-1.3-1.3-3.4-2-6.1-2h-10.5v23.5
		H710c5.4,0,8.6-2.4,8.6-6.3C718.6,666.6,717.2,664.9,714,663.8 M702.6,655.3h6.4c2.9,0,4.6,1.3,4.6,3.4c0,2.4-1.8,3.7-4.9,3.7h-6.1
		V655.3z M710,672.6h-7.4v-7.3h7.1c4.6,0,5.3,2.2,5.3,3.6C715,671.3,713.2,672.6,710,672.6"/>
	<rect x="724.5" y="652.2" class="st0" width="3.6" height="23.5"/>
	<path class="st0" d="M746.9,652h-3.5L733,675.8h3.7l2.5-5.8H751l2.5,5.8h3.8L746.9,652z M740.4,666.8l4.6-10.8l4.7,10.8H740.4z"/>
	<path class="st0" d="M612.7,599.2h-3.5v3.5h3.5V599.2z M570.3,629.6h3.4v-30.4h-3.4V629.6z M274.4,606.6H271v19.6h-13.5v-19.6h-5.3
		c-2.1,0-4,0.3-5.8,0.9c-1.7,0.6-3.2,1.4-4.4,2.4c-1.2,1-2.2,2.3-2.8,3.7c-0.7,1.4-1,2.9-1,4.6c0,2,0.4,3.7,1.1,5.2
		c0.8,1.4,1.8,2.6,3,3.6c1.3,0.9,2.8,1.6,4.4,2.1c1.7,0.5,3.5,0.7,5.3,0.7h22.2V606.6z M254.2,626.2h-3.3c-1.3,0-2.5-0.2-3.6-0.5
		c-1.1-0.4-2.1-0.9-2.9-1.6c-0.8-0.7-1.5-1.5-2-2.5c-0.5-1-0.7-2.1-0.7-3.4c0-1.2,0.3-2.3,0.8-3.3c0.5-1,1.2-1.9,2.1-2.6
		c0.9-0.7,1.8-1.3,2.9-1.6c1.1-0.4,2.2-0.6,3.4-0.6h3.3V626.2z M265,637.1h3.5v-3.5H265V637.1z M257.5,599.2H254v3.5h3.5V599.2z
		 M464.4,599.2h-3.5v3.5h3.5V599.2z M270.9,637.1h3.5v-3.5h-3.5V637.1z M470.3,599.2h-3.5v3.5h3.5V599.2z M606.8,599.2h-3.5v3.5h3.5
		V599.2z M251.6,599.2h-3.5v3.5h3.5V599.2z M481.6,637.1h3.5v-3.5h-3.5V637.1z M503.4,606.6H500v19.6h-12.8v-19.6h-3.4v19.6h-13.5
		v-19.6H465c-2.1,0-4,0.3-5.8,0.9c-1.7,0.6-3.2,1.4-4.4,2.4c-1.2,1-2.2,2.3-2.8,3.7c-0.7,1.4-1,2.9-1,4.6c0,2,0.4,3.7,1.1,5.2
		c0.8,1.4,1.8,2.6,3.1,3.6c1.3,0.9,2.8,1.6,4.4,2.1c1.7,0.5,3.5,0.7,5.3,0.7h38.4V606.6z M467,626.2h-3.3c-1.3,0-2.5-0.2-3.6-0.5
		c-1.1-0.4-2.1-0.9-2.9-1.6c-0.8-0.7-1.5-1.5-2-2.5c-0.5-1-0.7-2.1-0.7-3.4c0-1.2,0.3-2.3,0.8-3.3c0.5-1,1.2-1.9,2.1-2.6
		c0.9-0.7,1.8-1.3,2.9-1.6c1.1-0.4,2.2-0.6,3.4-0.6h3.3V626.2z M487.5,637.1h3.5v-3.5h-3.5V637.1z M296.2,609.6
		c-0.9-1-1.9-1.7-3-2.2c-1.1-0.5-2.5-0.7-4.1-0.7h-2.5v3.4h3c0.8,0,1.6,0.2,2.3,0.5c0.7,0.4,1.3,0.8,1.8,1.4c0.5,0.6,0.8,1.2,1,1.9
		c0.2,0.7,0.3,1.6,0.3,2.5v9.8h-15.9v3.4h19.3v-13.3c0-1.3-0.2-2.6-0.5-3.7C297.5,611.4,297,610.4,296.2,609.6 M557.1,626.2h-14.4
		l5.9-14.2c-0.9-0.8-1.9-1.5-2.9-2.2c-1-0.7-2.1-1.3-3.1-1.8c-1.1-0.5-2.2-0.9-3.3-1.2c-1.1-0.3-2.2-0.4-3.3-0.4
		c-1.1,0-2.2,0.1-3.3,0.4c-1.1,0.3-2.2,0.7-3.3,1.2c-1.1,0.5-2.1,1.1-3.1,1.8c-1,0.7-1.9,1.5-2.8,2.2l6,14.2h-12.6v-19.6h-3.4v23.7
		c0,1,0,1.8-0.1,2.4c-0.1,0.7-0.3,1.2-0.5,1.6c-0.2,0.4-0.6,0.7-1,0.9c-0.4,0.2-0.9,0.3-1.6,0.3c-0.3,0-0.6,0-0.8,0
		c-0.2,0-0.5-0.1-0.9-0.2l-0.9,3.3c0.9,0.3,1.9,0.4,2.8,0.4c1.2,0,2.2-0.2,3.1-0.6c0.8-0.4,1.5-1,2-1.7c0.5-0.7,0.9-1.7,1.1-2.7
		c0.2-1.1,0.3-2.3,0.3-3.6v-0.7h43.6v-30.4h-3.4V626.2z M533,626.2l-5.3-13c1.3-1.1,2.6-1.9,4-2.4c1.4-0.5,2.8-0.8,4.3-0.8
		c1.5,0,3,0.3,4.5,0.9c1.5,0.6,2.8,1.4,3.8,2.3l-5.3,13H533z M499.9,637.1h3.5v-3.5h-3.5V637.1z M752.5,629.6h3.4v-30.4h-3.4V629.6z
		 M739.2,626.2h-11.6c0.7-1.6,1.1-3.2,1.1-5c0-1.7-0.3-3.4-1-4.9c-0.6-1.5-1.5-2.8-2.6-3.9c-1.1-1.1-2.4-2-3.9-2.6
		c-1.5-0.6-3.1-0.9-4.9-0.9c-1.7,0-3.3,0.3-4.7,1c-1.5,0.6-2.7,1.5-3.8,2.6c-1.1,1.1-1.9,2.4-2.6,3.9c-0.6,1.5-0.9,3.1-0.9,4.8
		c0,0.9,0.1,1.8,0.3,2.6c0.2,0.8,0.4,1.6,0.7,2.4h-10.5c0.7-1.6,1.1-3.2,1.1-5c0-1.7-0.3-3.4-1-4.9c-0.6-1.5-1.5-2.8-2.6-3.9
		c-1.1-1.1-2.4-2-3.9-2.6c-1.5-0.6-3.1-0.9-4.9-0.9c-1.7,0-3.3,0.3-4.7,1c-1.5,0.6-2.7,1.5-3.8,2.6c-1.1,1.1-1.9,2.4-2.6,3.9
		c-0.6,1.5-0.9,3.1-0.9,4.8c0,0.9,0.1,1.8,0.3,2.6c0.2,0.8,0.4,1.6,0.7,2.4h-10.8v-27h-3.4v27h-10.8v-5.2c0-1.3-0.2-2.5-0.5-3.7
		c-0.3-1.2-0.9-2.2-1.6-3c-0.9-1-1.9-1.7-3-2.2c-1.1-0.5-2.5-0.7-4.2-0.7h-15l6.4-12.2h-3.7l-6.5,12.2c0.1,0.7,0.3,1.4,0.5,1.9
		c0.2,0.5,0.6,1,1,1.5h17.3c1.1,0,2,0.2,2.8,0.5c0.8,0.3,1.4,0.8,1.9,1.3c0.5,0.6,0.8,1.2,1,1.9c0.2,0.7,0.3,1.6,0.3,2.5v5.2h-31.3
		v-19.6h-5.3c-2.1,0-4,0.3-5.8,0.9c-1.7,0.6-3.2,1.4-4.4,2.4c-1.2,1-2.2,2.3-2.8,3.7c-0.7,1.4-1,2.9-1,4.6c0,2,0.4,3.7,1.1,5.2
		c0.8,1.4,1.8,2.6,3,3.6c1.3,0.9,2.8,1.6,4.4,2.1c1.7,0.5,3.5,0.7,5.3,0.7h67.2c1.1,1.2,2.4,2.1,3.9,2.8c1.5,0.7,3.2,1,4.9,1
		c1.8,0,3.5-0.3,5.1-1c1.6-0.7,2.9-1.6,4-2.8h14.9c1.1,1.2,2.4,2.1,3.9,2.8c1.5,0.7,3.2,1,4.9,1c1.8,0,3.5-0.3,5.1-1
		c1.6-0.7,2.9-1.6,4-2.8h17.2v-30.4h-3.4V626.2z M609.3,626.2H606c-1.3,0-2.5-0.2-3.6-0.5c-1.1-0.4-2.1-0.9-2.9-1.6
		c-0.8-0.7-1.5-1.5-2-2.5c-0.5-1-0.7-2.1-0.7-3.4c0-1.2,0.3-2.3,0.8-3.3c0.5-1,1.2-1.9,2.1-2.6c0.9-0.7,1.8-1.3,2.9-1.6
		c1.1-0.4,2.2-0.6,3.4-0.6h3.3V626.2z M691.7,624.7c-0.5,1.1-1.1,2-1.9,2.8c-0.8,0.8-1.8,1.4-2.8,1.8c-1.1,0.4-2.3,0.7-3.5,0.7
		c-1.2,0-2.4-0.2-3.4-0.7c-1.1-0.5-2-1.1-2.8-1.9c-0.8-0.8-1.4-1.7-1.8-2.8c-0.4-1.1-0.7-2.2-0.7-3.4c0-1.2,0.2-2.4,0.7-3.5
		c0.4-1.1,1-2,1.8-2.8c0.8-0.8,1.7-1.4,2.7-1.9c1.1-0.5,2.2-0.7,3.5-0.7c1.3,0,2.5,0.2,3.6,0.7c1.1,0.5,2,1.1,2.8,1.9
		c0.8,0.8,1.4,1.7,1.9,2.8c0.5,1.1,0.7,2.3,0.7,3.6C692.4,622.5,692.2,623.7,691.7,624.7 M724.6,624.7c-0.5,1.1-1.1,2-1.9,2.8
		c-0.8,0.8-1.7,1.4-2.8,1.8c-1.1,0.4-2.3,0.7-3.5,0.7c-1.2,0-2.4-0.2-3.5-0.7c-1.1-0.5-2-1.1-2.8-1.9c-0.8-0.8-1.4-1.7-1.8-2.8
		c-0.4-1.1-0.7-2.2-0.7-3.4c0-1.2,0.2-2.4,0.7-3.5c0.4-1.1,1-2,1.8-2.8c0.8-0.8,1.7-1.4,2.7-1.9c1.1-0.5,2.2-0.7,3.5-0.7
		c1.3,0,2.5,0.2,3.6,0.7c1.1,0.5,2,1.1,2.8,1.9c0.8,0.8,1.4,1.7,1.9,2.8c0.5,1.1,0.7,2.3,0.7,3.6C725.3,622.5,725,623.7,724.6,624.7
		 M414,626.2h-5.5c-2,0-3.5-0.3-4.7-0.8c-1.1-0.6-2-1.4-2.7-2.5c0.2-0.9,0.3-1.9,0.3-3.2v-10.9H398v11.5c0,1.9-0.5,3.5-1.6,4.7
		c-1,1.2-2.6,1.8-4.7,1.8c-1,0-1.9-0.2-2.7-0.5c-0.8-0.3-1.5-0.7-2.1-1.3c-0.6-0.5-1.1-1.2-1.4-1.9c-0.3-0.7-0.5-1.5-0.5-2.3v-12
		h-3.4v11.7c0,1-0.2,1.9-0.5,2.6c-0.3,0.7-0.7,1.3-1.3,1.8c-0.5,0.5-1.1,0.8-1.8,1c-0.7,0.2-1.4,0.3-2.2,0.3h-6.6v-17.5h-3.4v17.5
		h-17.8l5.9-14.2c-0.9-0.8-1.9-1.5-2.9-2.2c-1-0.7-2.1-1.3-3.1-1.8c-1.1-0.5-2.2-0.9-3.3-1.2c-1.1-0.3-2.2-0.4-3.3-0.4
		c-1.1,0-2.2,0.1-3.3,0.4c-1.1,0.3-2.2,0.7-3.3,1.2c-1.1,0.5-2.1,1.1-3.1,1.8c-1,0.7-1.9,1.5-2.8,2.2l6,14.2h-11.7v-19.6h-5.4
		c-2.1,0-4,0.3-5.7,0.9c-1.7,0.6-3.2,1.4-4.4,2.4c-1.2,1-2.2,2.3-2.9,3.7c-0.7,1.4-1,3-1,4.6c0,2,0.4,3.7,1.1,5.1
		c0.7,1.4,1.8,2.6,3,3.5c1.3,0.9,2.8,1.6,4.5,2c1.7,0.4,3.5,0.7,5.4,0.7h2v1c0,1.8-0.5,3.1-1.5,3.8c-1,0.8-2.4,1.1-4.3,1.1
		c-1,0-2-0.1-2.8-0.3c-0.8-0.2-1.8-0.5-2.9-1l-1.1,3.3c1.3,0.5,2.4,0.8,3.5,1.1c1,0.2,2,0.4,3,0.4c3.3,0,5.7-0.8,7.2-2.3
		c1.5-1.6,2.2-3.7,2.2-6.3v-0.6h52.6c1.6,0,3.1-0.4,4.4-1.1c1.3-0.7,2.3-1.7,3.1-2.8c0.8,1.4,1.9,2.4,3.3,3.2c1.4,0.8,3.1,1.1,5,1.1
		c2,0,3.8-0.4,5.2-1.1c1.4-0.7,2.5-1.8,3.3-3.3c0.3,0.5,0.6,1,1,1.4c0.4,0.5,0.9,0.9,1.6,1.2c0.6,0.4,1.4,0.7,2.4,0.9
		c0.7,0.2,1.5,0.3,2.4,0.3v0h9.8v-30.4H414V626.2z M319.8,626.2h-3.4c-1.3,0-2.5-0.2-3.6-0.5c-1.1-0.4-2.1-0.9-2.9-1.5
		c-0.8-0.7-1.5-1.5-2-2.5c-0.5-1-0.7-2.1-0.7-3.4c0-1.2,0.3-2.3,0.8-3.3c0.5-1,1.2-1.9,2.1-2.6c0.9-0.7,1.8-1.3,2.9-1.7
		c1.1-0.4,2.2-0.6,3.4-0.6h3.4V626.2z M338.5,626.2l-5.3-13c1.3-1.1,2.6-1.9,4-2.4c1.4-0.5,2.8-0.8,4.3-0.8c1.5,0,3,0.3,4.5,0.9
		c1.5,0.6,2.8,1.4,3.8,2.3l-5.3,13H338.5z M427.3,629.6h3.4v-30.4h-3.4V629.6z"/>
	<path class="st0" d="M690.5,427.4c-41.5,0-71.7,31.3-71.7,69.6v0.4c0,38.2,29.8,69.2,71.3,69.2c41.5,0,71.7-31.3,71.7-69.6v-0.4
		C761.8,458.3,732,427.4,690.5,427.4 M730.8,497.3c0,23.1-16.5,41.9-40.4,41.9c-23.8,0-40.7-19.2-40.7-42.3v-0.4
		c0-23.1,16.5-41.9,40.4-41.9c23.8,0,40.7,19.2,40.7,42.3V497.3z M286.5,538.6h51.3v25.6h-99.6v-23.4L283,504
		c16.7-13.8,23.3-21.1,23.3-32.3c0-11.3-7.5-17.5-18.1-17.5c-10.4,0-17.5,5.8-27.5,18.1L240,455.6c13.3-18.1,26.1-27.9,50.2-27.9
		c27.9,0,46.3,16.3,46.3,41.5v0.4c0,22.5-11.5,33.6-35.4,52.1l-29.4,22.7l-5.7,4.4L286.5,538.6z M611.1,522.1v0.4
		c0,25.4-18.4,44-48.4,44c-24.2,0-40.9-9.6-52.5-23.3l20.4-19.4c9.2,10.4,18.8,16.1,32.5,16.1c11.1,0,19-6.3,19-16.3v-0.4
		c0-11-9.8-17.1-26.3-17.1h-12.3l-4.6-18.8l43.2-43.4L564.7,455h-46.6v-25.4H609V452l-34,32.5C593.3,487.5,611.1,497.1,611.1,522.1"
		/>
	<path class="st0" d="M466.9,503.2c-0.9-0.5-2.5-1.3-4.7-2c-3.2-1-7.6-1.8-12.8-0.9c-1.8,0.3-3.6,0.7-5.6,1.4
		c-0.2,0.1-0.4,0.1-0.6,0.2c-1,0.4-2,0.8-2.9,1.3c-0.8,0.4-1.7,0.9-2.5,1.4c-1.9,1.1-3.8,2.4-5.6,3.8c-2.1-12.5-1.1-24.2-0.6-29.9
		c0,0,0,0,0.1,0c4.4,2.8,3.2,10.6,2.3,12.8c0,0,0,0.1,0.1,0c5.5-6.5,2.8-13.8,1.7-15.6c0,0,0-0.1,0.1,0c0.8,0.6,1.4,1.3,2,2
		c1.7,2.2,2.3,4.6,2.5,6.6c0.1,1.1,0.1,2.1,0,3c0,0.2,0,0.5-0.1,0.7c0,0,0,0,0.1,0c0,0,0,0,0,0c1.5-2.9,2.2-7.4,0-11.7
		c-0.6-1.2-1.4-2.3-2.5-3.4c-0.3-0.3-0.6-0.6-1-1c0,0,0-0.1,0-0.1c0.3,0.1,0.7,0.2,1,0.3c0.9,0.3,1.8,0.8,2.5,1.3
		c1.7,1.2,2.8,2.9,3.5,4.7c0.6,1.5,0.8,3,0.8,4.3c0,0,0.1,0.1,0.1,0c1-3.8,0.4-6.7-0.9-8.8c-0.9-1.5-2.2-2.6-3.5-3.4
		c-0.9-0.5-1.7-0.9-2.5-1.1c-0.4-0.1-0.9-0.2-1.2-0.3c-0.1,0,0-0.1,0-0.1c0.4,0,0.8-0.1,1.2-0.1c0.9,0,1.8,0.1,2.5,0.2
		c1.5,0.3,2.6,0.8,3.5,1.4c1.4,1,2.1,2.1,2.4,2.5c0,0,0.1,0,0.1,0c-0.2-2-1.1-3.6-2.4-4.7c-1-0.9-2.2-1.5-3.5-1.8
		c-0.8-0.2-1.7-0.3-2.5-0.4c-1.1,0-2.2,0.2-3.1,0.6c0,0-0.1,0,0-0.1c0.8-1.2,2-1.9,3.2-2.3c0.8-0.3,1.7-0.3,2.5-0.3
		c0.8,0,1.5,0.2,2.1,0.5c0,0,0.1,0,0-0.1c-0.6-0.7-1.3-1.3-2.1-1.7c-0.8-0.4-1.7-0.7-2.5-0.8c-2.2-0.3-4.5,0.7-6,3c0,0-0.1,0-0.1,0
		c-0.3-0.5-0.6-1.1-0.8-1.7c-0.6-1.4-1.1-3-1.4-4.6c0,0-0.1,0-0.1,0c-0.3,1.6-0.8,3.2-1.4,4.6c-0.3,0.6-0.5,1.2-0.8,1.7
		c0,0-0.1,0-0.1,0c-2.7-4-7.6-3.9-10.7-0.5c0,0,0,0.1,0,0.1c2-1,5.8-0.7,7.7,2.1c0,0,0,0.1,0,0.1c-3-1.2-7.5-0.4-9.9,2.5
		c-0.9,1-1.5,2.3-1.6,3.9c0,0,0.1,0.1,0.1,0c0.2-0.4,0.7-1.1,1.5-1.9c1.4-1.3,3.9-2.5,8-2.1c0.1,0,0.1,0.1,0,0.1
		c-2.1,0.3-6.4,2.1-8,6.4c-0.7,1.9-0.9,4.3-0.1,7.2c0,0,0.1,0,0.1,0c0-0.1,0-0.1,0-0.2c0-3.9,2.3-9.1,7.8-10.4c0,0,0.1,0,0,0.1
		c-6.2,5.4-5.6,12.1-3.5,16.1c0,0,0.1,0,0.1,0c-0.3-3-0.5-8.3,4.5-12.3c0,0,0.1,0,0.1,0c-1.1,1.8-3.8,9,1.7,15.6c0,0,0.1,0,0.1,0
		c-0.9-2.2-2.2-10,2.3-12.8c0,0,0.1,0,0.1,0c0.5,5.7,1.5,17.4-0.6,29.9c-3.6-2.7-7.3-5.1-11.1-6.6c-0.5-0.2-0.9-0.3-1.4-0.5
		c-3.8-1.3-7.4-1.6-10.4-1.5c-4.9,0.2-8.7,1.7-10.8,2.7c-0.4,0.2-0.8,0.4-1,0.6c-0.1,0.1,0,0.2,0.1,0.2c0.3-0.1,0.6-0.2,1-0.3
		c3.8-1.1,7.4-1.4,10.8-1.1c3.7,0.3,7.2,1.3,10.4,2.8c4.6,2.1,8.7,5,12.4,8.1c-5.3,4.6-9.7,9.1-12.4,10.6c-0.1,0.1-0.3,0.2-0.4,0.2
		c-0.6-0.9-1.8-1.4-3-1.1c-1.1,0.2-1.9,1.1-2.2,2.2c-0.2,1,0,2,0.6,2.5c1.4,1.4,3.1,1.5,5,0.7c3.6-1.5,8.2-6.4,13.8-11.5
		c0.5-0.4,0.9-0.9,1.4-1.3c0.5,0.4,0.9,0.9,1.4,1.3c2.5,2.3,4.8,4.6,6.9,6.5c0.9,0.8,1.7,1.5,2.5,2.2c1.2,1,2.4,1.9,3.5,2.4
		c2.1,1.1,4,1.3,5.6-0.1c0.1-0.1,0.2-0.1,0.3-0.2c0.4-0.4,0.8-1.6,0.6-2.5c-0.1-0.5-0.4-1-0.8-1.4c-0.4-0.4-0.8-0.6-1.4-0.7
		c-1.2-0.3-2.3,0.2-3,1.1c-0.4-0.2-0.8-0.4-1.2-0.7c-1-0.7-2.2-1.7-3.5-2.8c-0.8-0.7-1.6-1.4-2.5-2.3c-1.7-1.6-3.6-3.3-5.6-5
		c1.8-1.5,3.6-2.9,5.6-4.2c0.8-0.6,1.7-1.1,2.5-1.6c1.1-0.7,2.3-1.3,3.5-1.9c1.8-0.9,3.6-1.6,5.6-2.1c4-1.1,8.2-1.5,12.8-0.8
		c1.5,0.2,3,0.6,4.6,1.1C467,503.4,467,503.3,466.9,503.2"/>
	
		<rect x="423.5" y="573.4" transform="matrix(0.7071 -0.7071 0.7071 0.7071 -283.8903 473.4123)" class="st1" width="11.9" height="11.9"/>
	
		<rect x="359.9" y="524" transform="matrix(0.3091 -0.951 0.951 0.3091 -250.9122 712.4244)" class="st1" width="9.9" height="9.9"/>
	
		<rect x="388.3" y="440.9" transform="matrix(0.1564 -0.9877 0.9877 0.1564 -108.4373 762.9464)" class="st1" width="8.2" height="8.2"/>
	
		<rect x="488.5" y="491.9" transform="matrix(0.7071 -0.7071 0.7071 0.7071 -206.4374 493.58)" class="st1" width="8.2" height="8.2"/>
	
		<rect x="485.4" y="472.4" transform="matrix(0.4538 -0.8911 0.8911 0.4538 -157.2394 696.4545)" class="st1" width="8.2" height="8.2"/>
	
		<rect x="388.3" y="542.9" transform="matrix(0.9877 -0.1565 0.1565 0.9877 -80.7523 68.1387)" class="st1" width="8.2" height="8.2"/>
	
		<rect x="462.5" y="440.9" transform="matrix(0.9877 -0.1565 0.1565 0.9877 -63.8725 78.4824)" class="st1" width="8.2" height="8.2"/>
	
		<rect x="405.9" y="551.9" transform="matrix(0.8911 -0.4538 0.4538 0.8911 -207.6424 246.6007)" class="st1" width="8.2" height="8.2"/>
	
		<rect x="425.4" y="428.8" transform="matrix(0.7071 -0.7071 0.7071 0.7071 -180.314 430.4983)" class="st1" width="8.2" height="8.2"/>
	
		<rect x="417.5" y="438.4" transform="matrix(0.588 -0.8089 0.8089 0.588 -183.9366 522.5346)" class="st1" width="6.8" height="6.8"/>
	
		<rect x="434.7" y="546.8" transform="matrix(0.588 -0.8089 0.8089 0.588 -264.4993 581.0536)" class="st1" width="6.8" height="6.8"/>
	
		<rect x="377.3" y="467.7" transform="matrix(0.9511 -0.3088 0.3088 0.9511 -126.8781 140.5831)" class="st1" width="6.8" height="6.8"/>
	
		<rect x="475" y="517.5" transform="matrix(0.9511 -0.3088 0.3088 0.9511 -137.4794 173.1998)" class="st1" width="6.8" height="6.8"/>
	
		<rect x="372" y="501.2" transform="matrix(0.5879 -0.8089 0.8089 0.5879 -253.4774 511.5185)" class="st1" width="6.8" height="6.8"/>
	
		<rect x="502.9" y="515.8" transform="matrix(0.891 -0.454 0.454 0.891 -181.409 287.8659)" class="st2" width="11.9" height="11.9"/>
	
		<rect x="374.5" y="557.5" transform="matrix(0.9877 -0.1564 0.1564 0.9877 -83.4381 66.437)" class="st2" width="11.9" height="11.9"/>
	
		<rect x="472.6" y="422.5" transform="matrix(0.9877 -0.1564 0.1564 0.9877 -61.1252 80.111)" class="st2" width="11.9" height="11.9"/>
	
		<rect x="352.9" y="502.4" transform="matrix(0.5876 -0.8091 0.8091 0.5876 -262.9168 498.7597)" class="st2" width="9.9" height="9.9"/>
	
		<rect x="405.9" y="431.9" transform="matrix(0.4538 -0.8911 0.8911 0.4538 -164.5638 603.5217)" class="st2" width="8.2" height="8.2"/>
	
		<rect x="365.4" y="472.4" transform="matrix(0.8911 -0.4538 0.4538 0.8911 -175.9865 219.5683)" class="st2" width="8.2" height="8.2"/>
	
		<rect x="425.4" y="555" transform="matrix(0.7071 -0.7071 0.7071 0.7071 -269.5065 467.4425)" class="st2" width="8.2" height="8.2"/>
	
		<rect x="475" y="467.7" transform="matrix(0.3089 -0.9511 0.9511 0.3089 -117.4225 780.5726)" class="st2" width="6.8" height="6.8"/>
	<rect x="387.3" y="531.4" class="st2" width="6.8" height="6.8"/>
	
		<rect x="344.2" y="464.2" transform="matrix(0.891 -0.454 0.454 0.891 -175.2979 210.222)" class="st3" width="11.9" height="11.9"/>
	
		<rect x="344.2" y="515.8" transform="matrix(0.454 -0.891 0.891 0.454 -273.6826 596.9088)" class="st3" width="11.9" height="11.9"/>
	
		<rect x="391.6" y="426.4" transform="matrix(0.309 -0.9511 0.9511 0.309 -136.2083 675.2374)" class="st3" width="9.9" height="9.9"/>
	
		<rect x="457.5" y="555.7" transform="matrix(0.309 -0.9511 0.9511 0.309 -213.6264 827.1825)" class="st3" width="9.9" height="9.9"/>
	
		<rect x="489.2" y="524" transform="matrix(0.9511 -0.309 0.309 0.9511 -139.2505 178.5704)" class="st3" width="9.9" height="9.9"/>
	
		<rect x="496.2" y="502.4" transform="matrix(0.8091 -0.5876 0.5876 0.8091 -202.4666 391.3223)" class="st3" width="9.9" height="9.9"/>
	
		<rect x="489.2" y="458.1" transform="matrix(0.309 -0.9511 0.9511 0.309 -98.9504 789.9117)" class="st3" width="9.9" height="9.9"/>
	<rect x="475.9" y="439.8" class="st3" width="9.9" height="9.9"/>
	
		<rect x="391.6" y="555.7" transform="matrix(0.9511 -0.309 0.309 0.9511 -153.8245 149.9855)" class="st3" width="9.9" height="9.9"/>
	
		<rect x="435.9" y="562.7" transform="matrix(0.5876 -0.8091 0.8091 0.5876 -277.4802 590.7746)" class="st3" width="9.9" height="9.9"/>
	
		<rect x="365.4" y="511.4" transform="matrix(0.4538 -0.8911 0.8911 0.4538 -257.5004 610.8435)" class="st3" width="8.2" height="8.2"/>
	<rect x="387.3" y="453.8" class="st3" width="6.8" height="6.8"/>
	<rect x="372" y="484" transform="matrix(0.8089 -0.588 0.588 0.8089 -214.8391 313.8273)" class="st3" width="6.8" height="6.8"/>
	
		<rect x="451" y="443.7" transform="matrix(0.9511 -0.3089 0.3089 0.9511 -115.8767 162.2035)" class="st3" width="6.8" height="6.8"/>
	
		<rect x="434.7" y="438.4" transform="matrix(0.8089 -0.5879 0.5879 0.8089 -176.0429 342.0014)" class="st3" width="6.8" height="6.8"/>
	
		<rect x="465.3" y="521.2" transform="matrix(0.9876 -0.1567 0.1567 0.9876 -76.3304 79.8239)" class="st3" width="5.6" height="5.6"/>
	
		<rect x="474.4" y="493.2" transform="matrix(0.7071 -0.7071 0.7071 0.7071 -210.9423 482.6894)" class="st3" width="5.6" height="5.6"/>
	
		<rect x="502.9" y="464.2" transform="matrix(0.454 -0.891 0.891 0.454 -141.1219 710.1242)" class="st4" width="11.9" height="11.9"/>
	<rect x="475.9" y="542.3" class="st4" width="9.9" height="9.9"/>
	
		<rect x="359.9" y="458.1" transform="matrix(0.9511 -0.309 0.309 0.9511 -125.2265 135.4098)" class="st4" width="9.9" height="9.9"/>
	
		<rect x="457.5" y="426.4" transform="matrix(0.951 -0.3091 0.3091 0.951 -110.6913 164.0743)" class="st4" width="9.9" height="9.9"/>
	
		<rect x="413.2" y="419.4" transform="matrix(0.5876 -0.8091 0.8091 0.5876 -170.9109 513.3321)" class="st4" width="9.9" height="9.9"/>
	
		<rect x="485.4" y="511.4" transform="matrix(0.8911 -0.4538 0.4538 0.8911 -180.6118 278.2507)" class="st4" width="8.2" height="8.2"/>
	
		<rect x="362.4" y="491.9" transform="matrix(0.7071 -0.7071 0.7071 0.7071 -243.3833 404.386)" class="st4" width="8.2" height="8.2"/>
	
		<rect x="480.3" y="501.2" transform="matrix(0.8089 -0.588 0.588 0.8089 -204.224 380.8026)" class="st4" width="6.8" height="6.8"/>
	
		<rect x="401.2" y="541.5" transform="matrix(0.9511 -0.3089 0.3089 0.9511 -148.4956 151.602)" class="st4" width="6.8" height="6.8"/>
	
		<rect x="426.7" y="540.9" transform="matrix(0.7071 -0.7071 0.7071 0.7071 -258.6332 462.9545)" class="st4" width="5.6" height="5.6"/>
	
		<rect x="398.7" y="454.6" transform="matrix(0.1561 -0.9877 0.9877 0.1561 -112.9845 782.5549)" class="st4" width="5.6" height="5.6"/>
	
		<rect x="381.3" y="507.9" transform="matrix(0.4543 -0.8909 0.8909 0.4543 -245.3369 620.9393)" class="st4" width="5.6" height="5.6"/>
	<rect x="373.3" y="439.8" class="st0" width="9.9" height="9.9"/>
	
		<rect x="435.9" y="419.4" transform="matrix(0.8091 -0.5876 0.5876 0.8091 -165.2123 340.064)" class="st0" width="9.9" height="9.9"/>
	
		<rect x="444.9" y="551.9" transform="matrix(0.4538 -0.8911 0.8911 0.4538 -250.1753 703.7832)" class="st0" width="8.2" height="8.2"/>
	
		<rect x="374.4" y="529" transform="matrix(0.1565 -0.9877 0.9877 0.1565 -207.2209 823.472)" class="st0" width="8.2" height="8.2"/>
	
		<rect x="476.4" y="454.8" transform="matrix(0.1565 -0.9877 0.9877 0.1565 -47.9099 861.7221)" class="st0" width="8.2" height="8.2"/>
	<rect x="464.9" y="531.4" class="st0" width="6.8" height="6.8"/>
	
		<rect x="480.3" y="484" transform="matrix(0.5879 -0.8089 0.8089 0.5879 -194.9576 592.0809)" class="st0" width="6.8" height="6.8"/>
	
		<rect x="417.5" y="546.8" transform="matrix(0.8091 -0.5877 0.5877 0.8091 -242.9585 352.4165)" class="st0" width="6.8" height="6.8"/>
	
		<rect x="412" y="447.8" transform="matrix(0.4543 -0.8909 0.8909 0.4543 -175.0931 615.4164)" class="st0" width="5.6" height="5.6"/>
	
		<rect x="441.4" y="538.5" transform="matrix(0.4543 -0.8909 0.8909 0.4543 -239.8194 691.1763)" class="st0" width="5.6" height="5.6"/>
	
		<rect x="454.7" y="531.8" transform="matrix(0.1561 -0.9877 0.9877 0.1561 -141.891 903.0477)" class="st0" width="5.6" height="5.6"/>
	
		<rect x="381.3" y="478.4" transform="matrix(0.8909 -0.4543 0.4543 0.8909 -176.6924 227.0365)" class="st0" width="5.6" height="5.6"/>
	
		<rect x="472.1" y="507.9" transform="matrix(0.8909 -0.4543 0.4543 0.8909 -180.1814 271.4615)" class="st0" width="5.6" height="5.6"/>
	
		<rect x="388.1" y="521.2" transform="matrix(0.1561 -0.9877 0.9877 0.1561 -187.6839 828.348)" class="st0" width="5.6" height="5.6"/>
	
		<rect x="454.7" y="454.6" transform="matrix(0.9877 -0.1561 0.1561 0.9877 -65.7908 77.0285)" class="st0" width="5.6" height="5.6"/>
	
		<rect x="412" y="538.5" transform="matrix(0.8909 -0.4543 0.4543 0.8909 -200.6461 247.4988)" class="st0" width="5.6" height="5.6"/>
	
		<rect x="374.5" y="422.5" transform="matrix(0.1564 -0.9877 0.9877 0.1564 -102.2494 737.2867)" class="st5" width="11.9" height="11.9"/>
	
		<rect x="472.6" y="557.5" transform="matrix(0.1564 -0.9877 0.9877 0.1564 -152.8291 947.9866)" class="st5" width="11.9" height="11.9"/>
	
		<rect x="423.5" y="406.6" transform="matrix(0.7071 -0.7071 0.7071 0.7071 -165.9311 424.5516)" class="st5" width="11.9" height="11.9"/>
	
		<rect x="352.9" y="479.7" transform="matrix(0.8091 -0.5876 0.5876 0.8091 -216.4786 302.799)" class="st5" width="9.9" height="9.9"/>
	
		<rect x="496.2" y="479.7" transform="matrix(0.5876 -0.8091 0.8091 0.5876 -185.4763 605.3279)" class="st5" width="9.9" height="9.9"/>
	<rect x="373.3" y="542.3" class="st5" width="9.9" height="9.9"/>
	
		<rect x="413.2" y="562.7" transform="matrix(0.8091 -0.5876 0.5876 0.8091 -253.7377 354.0771)" class="st5" width="9.9" height="9.9"/>
	
		<rect x="462.5" y="542.9" transform="matrix(0.1564 -0.9877 0.9877 0.1564 -146.6861 922.2588)" class="st5" width="8.2" height="8.2"/>
	
		<rect x="374.4" y="454.8" transform="matrix(0.9877 -0.1564 0.1564 0.9877 -67.1355 64.8647)" class="st5" width="8.2" height="8.2"/>
	
		<rect x="476.4" y="529" transform="matrix(0.9877 -0.1564 0.1564 0.9877 -77.4784 81.7431)" class="st5" width="8.2" height="8.2"/>
	
		<rect x="444.9" y="431.9" transform="matrix(0.8911 -0.4538 0.4538 0.8911 -148.9591 251.226)" class="st5" width="8.2" height="8.2"/>
	
		<rect x="401.2" y="443.7" transform="matrix(0.3088 -0.9511 0.9511 0.3088 -145.6049 693.8627)" class="st5" width="6.8" height="6.8"/>
	
		<rect x="451" y="541.5" transform="matrix(0.3088 -0.9511 0.9511 0.3088 -204.1406 808.7734)" class="st5" width="6.8" height="6.8"/>
	
		<rect x="377.3" y="517.5" transform="matrix(0.3089 -0.9511 0.9511 0.3089 -232.3306 722.0364)" class="st5" width="6.8" height="6.8"/>
	<rect x="464.9" y="453.8" class="st5" width="6.8" height="6.8"/>
	
		<rect x="426.7" y="445.5" transform="matrix(0.7071 -0.7071 0.7071 0.7071 -191.189 435.0176)" class="st5" width="5.6" height="5.6"/>
	
		<rect x="388.1" y="465.1" transform="matrix(0.9877 -0.1561 0.1561 0.9877 -68.2541 66.7597)" class="st5" width="5.6" height="5.6"/>
	
		<rect x="379" y="493.2" transform="matrix(0.7071 -0.7071 0.7071 0.7071 -238.8773 415.2469)" class="st5" width="5.6" height="5.6"/>
	
		<rect x="472.1" y="478.4" transform="matrix(0.4543 -0.8909 0.8909 0.4543 -169.5763 685.6654)" class="st5" width="5.6" height="5.6"/>
	
		<rect x="465.3" y="465.1" transform="matrix(0.1561 -0.9877 0.9877 0.1561 -67.1901 857.2537)" class="st5" width="5.6" height="5.6"/>
	
		<rect x="398.7" y="531.8" transform="matrix(0.9877 -0.1561 0.1561 0.9877 -78.5231 69.2231)" class="st5" width="5.6" height="5.6"/>
	
		<rect x="441.4" y="447.8" transform="matrix(0.8909 -0.4543 0.4543 0.8909 -156.222 250.9879)" class="st5" width="5.6" height="5.6"/>
</g>
</svg>
